<svg width="54" height="53" viewBox="0 0 54 53" fill="none" xmlns="http://www.w3.org/2000/svg">
<circle cx="26.8849" cy="26.455" r="26.0975" stroke="#0D0C10" stroke-width="0.715"/>
<path d="M24.3826 41.47C24.1604 31.4994 26.1628 27.6613 32.2476 22.88" stroke="#0D0C10" stroke-width="0.715"/>
<path d="M24.3825 41.47C24.3689 33.5207 23.0431 31.0044 19.02 28.9575" stroke="#0D0C10" stroke-width="0.715"/>
<path d="M27.2425 19.305C25.0937 22.0007 25.4069 24.3235 26.885 28.9575C36.5017 29.1834 40.7495 27.4797 41.5425 13.585C32.418 15.8499 29.4629 16.7278 27.2425 19.305Z" stroke="#0D0C10" stroke-width="0.715"/>
<path d="M22.9829 26.866C24.4379 28.7445 24.2258 30.3632 23.2249 33.5924C16.7132 33.7498 13.8369 32.5626 13.2999 22.88C19.4784 24.4584 21.4794 25.0701 22.9829 26.866Z" stroke="#0D0C10" stroke-width="0.715"/>
</svg>
