<svg width="54" height="53" viewBox="0 0 54 53" fill="none" xmlns="http://www.w3.org/2000/svg">
<circle cx="27.1449" cy="26.455" r="26.0975" stroke="#0D0C10" stroke-width="0.715"/>
<path d="M27.8599 20.3775C27.7134 25.8953 25.783 27.3549 19.9949 27.885C14.4897 27.3343 13.2808 25.885 15.3474 20.735C16.7144 18.1696 17.9585 17.0846 21.0674 15.73C22.7503 15.6128 23.6209 15.6476 24.6424 16.445C27.3263 12.4938 29.0278 10.5955 33.5799 9.65247C35.7054 8.89556 36.2216 9.4928 36.0824 12.155C35.6021 14.9354 34.166 16.767 27.8599 20.02" stroke="#0D0C10" stroke-width="0.715"/>
<path d="M21.0674 15.7299C23.1861 12.1813 24.7311 10.7084 28.5749 9.6524C30.2064 9.53527 30.7143 9.67301 30.0049 10.7249" stroke="#0D0C10" stroke-width="0.715"/>
<path d="M27.5024 22.5225C34.9633 21.9343 39.2999 26.455 41.0874 31.1025" stroke="#0D0C10" stroke-width="0.715"/>
<path d="M41.0874 31.1025L41.4449 31.8175C43.8419 31.8766 44.5172 32.2955 44.6624 34.32C44.6042 36.9008 43.6066 37.3934 41.0874 37.5375" stroke="#0D0C10" stroke-width="0.715"/>
<path d="M19.9947 27.885C18.2759 30.7491 18.5259 32.5631 20.7097 36.1075C18.6572 36.7859 17.9199 37.5324 17.1347 39.325C16.9305 40.978 16.972 41.8037 19.2797 41.8275C24.0246 40.2386 26.0968 38.8747 28.9322 35.75C28.2111 33.4059 28.3042 32.2335 29.2897 30.3875" stroke="#0D0C10" stroke-width="0.715"/>
<path d="M28.9323 35.7499C30.0999 36.7054 30.8597 37.1869 32.5073 37.8949C28.7081 38.4865 28.1621 39.2325 29.2898 41.1124C31.6891 41.7039 32.8401 41.3903 34.6523 40.0399C38.0913 39.975 39.2806 39.2101 41.0873 37.5374C41.9498 35.9226 41.8923 34.9717 41.4448 33.2474" stroke="#0D0C10" stroke-width="0.715"/>
<path d="M31.7922 28.2425C32.3682 27.554 32.7725 27.2954 33.9372 27.5275" stroke="#0D0C10" stroke-width="0.715"/>
<path d="M30.0049 29.6725C30.3415 29.3452 30.5574 29.1781 31.0774 28.9575" stroke="#0D0C10" stroke-width="0.715"/>
</svg>
