<svg width="54" height="53" viewBox="0 0 54 53" fill="none" xmlns="http://www.w3.org/2000/svg">
<path d="M35.4525 41.4699V37.8949C38.0941 35.4418 40.4575 33.6049 42.245 31.4599C44.0325 29.3149 42.96 20.3774 41.8875 20.3774C40.815 20.3774 40.1 22.5224 40.1 22.5224V27.8849M40.1 27.8849C39.7425 28.9574 37.955 31.1024 35.4525 32.8899M40.1 27.8849C38.9552 26.1951 38.7755 26.082 37.24 27.1699C35.0075 29.9025 34.0225 30.3874 30.805 31.8174C27.5875 33.2474 27.5875 36.8224 28.3025 37.5374C29.0175 38.2524 28.66 41.8274 28.66 41.8274" stroke="#0D0C10" stroke-width="0.715"/>
<path d="M19.9635 41.1125V37.5375C17.3219 35.0844 14.9585 33.2475 13.171 31.1025C11.3835 28.9575 12.456 20.02 13.5285 20.02C14.601 20.02 15.316 22.165 15.316 22.165V27.5275M15.316 27.5275C15.6735 28.6 17.461 30.745 19.9635 32.5325M15.316 27.5275C16.4608 25.8377 16.6406 25.7245 18.176 26.8125C20.4085 29.5451 21.3935 30.03 24.611 31.46C27.8285 32.89 27.8285 36.465 27.1135 37.18C26.3985 37.895 26.756 41.47 26.756 41.47" stroke="#0D0C10" stroke-width="0.715"/>
<circle cx="27.2301" cy="26.455" r="26.0975" stroke="#0D0C10" stroke-width="0.715"/>
<path d="M21.1526 13.2275C23.2767 13.0864 25.9859 14.4177 27.9451 18.2325C29.6986 14.8645 32.2351 12.87 34.7376 13.2275C37.2401 13.585 39.0276 15.73 39.0276 18.9475C39.0276 22.165 27.5876 29.6725 27.5876 29.6725C27.5876 29.6725 16.4965 23.0934 16.5051 18.9475C16.5137 14.8016 19.0286 13.3685 21.1526 13.2275Z" stroke="#0D0C10" stroke-width="0.715"/>
</svg>
